<mxfile host="app.diagrams.net" modified="2024-04-11T19:42:28.718Z" agent="Mozilla/5.0 (Windows NT 10.0; Win64; x64) AppleWebKit/537.36 (KHTML, like Gecko) Chrome/123.0.0.0 Safari/537.36" version="24.0.7" etag="cjnmTExB0woeIBAx_FnV" type="github">
  <diagram name="PÃ¡gina-1" id="3Q_eE5bObxBH3zZWEDMl">
    <mxGraphModel>
      <root>
        <mxCell id="0" />
        <mxCell id="1" parent="0" />
      </root>
    </mxGraphModel>
  </diagram>
</mxfile>
